HIERARCHY
ROOT Hips
{
	OFFSET	0.00	0.00	0.00
	CHANNELS 6 Xposition Yposition Zposition Zrotation Xrotation Yrotation
	JOINT LeftUpLeg
	{
		OFFSET	 0.126116	-0.065224	 0.014019
		CHANNELS 3 Zrotation Xrotation Yrotation
		JOINT LeftLeg
		{
			OFFSET	 0.000000	 0.569914	 0.000000
			CHANNELS 3 Zrotation Xrotation Yrotation
			JOINT LeftFoot
			{
				OFFSET	 0.000000	 0.544423	 0.000000
				CHANNELS 3 Zrotation Xrotation Yrotation
				JOINT LeftToeBase
				{
					OFFSET	 0.000000	 0.207117	 0.000000
					CHANNELS 3 Zrotation Xrotation Yrotation
					End Site
					{
						OFFSET	 0.000000	 0.207117	 0.000000
					}
				}
			}
		}
	}
	JOINT RightUpLeg
	{
		OFFSET	-0.124023	-0.065224	 0.008373
		CHANNELS 3 Zrotation Xrotation Yrotation
		JOINT RightLeg
		{
			OFFSET	 0.000000	 0.570047	 0.000000
			CHANNELS 3 Zrotation Xrotation Yrotation
			JOINT RightFoot
			{
				OFFSET	 0.000000	 0.544354	 0.000000
				CHANNELS 3 Zrotation Xrotation Yrotation
				JOINT RightToeBase
				{
					OFFSET	 0.000000	 0.207540	 0.000000
					CHANNELS 3 Zrotation Xrotation Yrotation
					End Site
					{
						OFFSET	 0.000000	 0.207540	 0.000000
					}
				}
			}
		}
	}
	JOINT Spine
	{
		OFFSET	 0.000184	 0.117403	 0.007763
		CHANNELS 3 Zrotation Xrotation Yrotation
		JOINT Spine1
		{
			OFFSET	 0.000000	 0.137269	 0.000000
			CHANNELS 3 Zrotation Xrotation Yrotation
			JOINT Spine2
			{
				OFFSET	 0.000000	 0.156879	 0.000000
				CHANNELS 3 Zrotation Xrotation Yrotation
				JOINT LeftShoulder
				{
					OFFSET	 0.080501	 0.160143	 0.002496
					CHANNELS 3 Zrotation Xrotation Yrotation
					JOINT LeftArm
					{
						OFFSET	 0.000000	 0.164363	 0.000000
						CHANNELS 3 Zrotation Xrotation Yrotation
						JOINT LeftForeArm
						{
							OFFSET	 0.000000	 0.364576	 0.000000
							CHANNELS 3 Zrotation Xrotation Yrotation
							JOINT LeftHand
							{
								OFFSET	 0.000000	 0.360812	 0.000000
								CHANNELS 3 Zrotation Xrotation Yrotation
								JOINT LeftHandIndex1
								{
									OFFSET	 0.000000	 0.086006	 0.000000
									CHANNELS 3 Zrotation Xrotation Yrotation
									JOINT LeftHandIndex2
									{
										OFFSET	 0.000000	 0.047237	 0.000000
										CHANNELS 3 Zrotation Xrotation Yrotation
										JOINT LeftHandIndex3
										{
											OFFSET	-0.004284	 0.038165	 0.000551
											CHANNELS 3 Zrotation Xrotation Yrotation
											End Site
											{
												OFFSET	-0.004284	 0.038165	 0.000551
											}
										}
									}
								}
							}
						}
					}
				}
				JOINT Neck
				{
					OFFSET	 0.000000	 0.176489	 0.000000
					CHANNELS 3 Zrotation Xrotation Yrotation
					JOINT Head
					{
						OFFSET	 0.000000	 0.077941	 0.001747
						CHANNELS 3 Zrotation Xrotation Yrotation
						End Site
						{
							OFFSET	 0.000000	 0.077941	 0.001747
						}
					}
				}
				JOINT RightShoulder
				{
					OFFSET	-0.080363	 0.159706	-0.000306
					CHANNELS 3 Zrotation Xrotation Yrotation
					JOINT RightArm
					{
						OFFSET	 0.000000	 0.164196	 0.000000
						CHANNELS 3 Zrotation Xrotation Yrotation
						JOINT RightForeArm
						{
							OFFSET	 0.000000	 0.365611	 0.000000
							CHANNELS 3 Zrotation Xrotation Yrotation
							JOINT RightHand
							{
								OFFSET	 0.000000	 0.360648	 0.000000
								CHANNELS 3 Zrotation Xrotation Yrotation
								JOINT RightHandIndex1
								{
									OFFSET	 0.000000	 0.069977	 0.000000
									CHANNELS 3 Zrotation Xrotation Yrotation
									JOINT RightHandIndex2
									{
										OFFSET	 0.000000	 0.052305	 0.000000
										CHANNELS 3 Zrotation Xrotation Yrotation
										JOINT RightHandIndex3
										{
											OFFSET	 0.009002	 0.042196	 0.000782
											CHANNELS 3 Zrotation Xrotation Yrotation
											End Site
											{
												OFFSET	 0.009002	 0.042196	 0.000782
											}
										}
									}
								}
							}
						}
					}
				}
			}
		}
	}
}
MOTION
Frames:    6
Frame Time: 0.03333334
 0.603861	 1.095460	-0.180451	 18.621100	-16.509500	-86.941350	 158.665000	 38.253400	-6.082434	 21.464670	-75.858040	 29.333940	 51.178170	 26.993950	-53.994460	 0.041137	 42.960820	-3.919509	 148.315200	 66.326770	 16.956060	-14.814480	-71.372930	-15.380400	-61.688320	 64.684260	 86.194340	-1.645664	 33.307430	 2.847718	 4.119483	 12.415670	-0.127883	-17.546780	-2.485848	 2.307888	 18.349240	 21.952820	 10.813970	-102.774700	 3.935581	 91.048600	-14.610960	 71.733830	 26.858980	 28.460420	-1.446201	 0.992683	-25.098340	-4.111990	 27.007310	-2.592881	 1.571807	-8.351927	-6.941342	 7.776704	 1.951969	 4.963066	-4.014628	-0.346955	 12.075420	 3.657333	 2.324032	 0.503967	 7.398791	-41.539020	 88.994930	 6.253801	-91.868590	-65.155170	 41.572480	 73.665930	-68.808030	-4.931179	 6.799410	 14.293740	 14.434380	-9.638007	-3.061614	 16.549020	-2.188623	 14.260840	 21.731760	-6.413074	-8.239867	-2.131385	 0.447455
 0.626313	 1.117739	-0.184589	 16.292260	-13.259920	-80.155380	 164.541500	 24.944670	-10.771410	 12.771750	-67.360780	 20.864150	 50.785760	 29.992060	-55.971960	 0.198894	 41.218290	-3.854930	 146.561900	 58.391870	 22.750620	-12.050400	-67.568630	-12.736750	-60.444520	 62.589990	 83.463700	-1.647110	 33.330260	 2.849049	 4.005125	 10.972350	 0.037873	-16.963900	-2.967324	 1.904770	 18.968460	 19.916950	 9.940684	-101.645200	 2.692211	 90.986130	-10.671050	 73.521420	 22.731850	 21.497550	-1.118169	 0.935318	-22.458330	-0.844211	 27.240150	-2.240746	 3.185499	-8.286121	-6.988636	 8.048222	 2.005998	 4.963066	-4.014628	-0.346955	 13.610530	 4.616262	 1.567327	-1.022378	 7.257905	-41.948460	 89.658740	 4.434891	-92.284780	-68.357190	 36.928480	 78.607160	-67.375510	-4.882083	 6.361661	 14.930760	 13.200040	-13.487120	-2.914482	 16.776170	-2.377338	 14.266190	 21.932440	-6.469226	-8.239867	-2.131385	 0.447455
 0.656847	 1.132755	-0.176405	 15.407150	-10.609770	-72.090820	 165.878200	 16.767100	-8.321900	 7.946703	-56.300960	 14.748640	 53.167460	 39.534010	-66.762930	 1.210772	 40.347400	-5.486499	 140.839200	 51.393890	 32.509340	-10.384410	-64.445790	-10.986980	-55.898330	 61.696780	 78.769170	-1.648780	 33.355640	 2.850444	 3.533145	 9.909073	 0.487079	-13.939900	-3.139279	 2.162051	 15.960410	 16.700090	 8.511736	-101.571700	 0.977226	 91.311900	-5.123085	 71.380180	 16.768210	 20.299720	-1.061693	 0.975880	-18.479810	 0.188840	 26.342110	-2.405869	 8.491950	-7.989191	-7.010860	 8.117684	 2.019983	 4.963066	-4.014628	-0.346955	 15.058310	 3.113681	 0.378851	-1.779686	 4.955086	-43.224780	 89.031970	 2.088800	-91.946010	-67.673460	 32.656380	 83.431070	-66.296710	-4.843072	 6.017817	 16.719130	 6.121772	-14.526140	-2.913329	 16.707820	-2.495680	 14.298600	 22.248470	-6.565552	-8.239867	-2.131385	 0.447455
 0.684733	 1.135623	-0.167180	 14.132420	-8.513466	-64.179180	 166.716000	 13.463270	-4.917586	 6.220417	-49.605240	 11.363800	 59.216460	 46.709120	-80.189850	 2.163983	 39.467940	-7.055057	 136.726200	 44.719540	 40.439320	-9.889259	-63.351790	-10.304940	-53.833980	 61.576810	 76.641550	-1.650427	 33.380690	 2.851820	 2.917515	 9.100020	 0.473537	-9.906241	-0.721772	 2.300594	 12.604000	 12.497000	 6.973501	-101.489600	-0.713300	 91.635230	-1.448031	 69.027020	 12.521130	 22.620980	-1.179744	 1.083781	-16.560590	 2.762769	 24.403140	-2.599282	 13.722180	-7.675758	-7.032794	 8.186171	 2.033801	 4.963066	-4.014628	-0.346955	 16.453420	 1.603626	-0.754147	-2.585220	 2.790273	-44.496370	 88.427980	-0.227846	-91.637340	-65.263950	 29.981210	 88.751660	-66.419500	-4.847634	 5.563923	 15.897950	 2.247764	-15.604340	-2.912337	 16.640430	-2.612325	 14.331200	 22.560020	-6.660935	-8.239867	-2.131385	 0.447455
 0.721006	 1.140910	-0.161680	 13.072200	-6.806143	-57.816930	 166.726200	 11.710220	 0.289372	 5.396778	-45.569920	 10.042340	 65.884610	 48.019540	-88.280010	 2.180466	 35.484070	-7.487619	 135.246300	 40.146390	 45.032840	-8.950190	-61.014900	-9.167844	-50.077100	 60.349860	 72.229800	-1.677222	 33.278880	 2.915082	 2.381951	 8.385715	 0.908830	-7.350434	 0.611812	 2.480493	 9.590818	 9.986143	 5.308199	-101.518000	-1.813917	 92.945270	 5.793835	 66.381450	 4.097038	 23.705060	-1.233757	 1.154940	-12.790500	 2.305638	 25.591190	-3.009118	 15.104800	-7.469469	-7.055583	 8.260024	 2.047872	 4.963066	-4.014628	-0.346955	 16.848540	-1.129501	-2.004190	-2.090756	 0.441927	-45.324330	 88.019460	-2.362482	-91.316770	-60.010290	 25.567440	 90.192120	-64.178890	-4.761565	 5.352867	 17.654300	-3.420400	-13.628700	-2.911270	 16.575470	-2.724780	 14.347630	 22.793330	-6.729825	-8.239867	-2.131385	 0.447455
 0.763169	 1.141772	-0.158178	 12.013590	-5.419461	-52.046600	 165.803200	 13.074950	 5.506017	 5.468497	-45.946670	 10.053660	 72.851200	 47.304520	-93.486900	 1.805915	 30.005540	-7.457896	 133.970700	 36.906940	 48.844280	-8.165768	-58.752090	-8.140276	-45.786600	 58.529150	 66.938510	-1.715656	 33.117220	 3.007478	 1.820625	 7.824388	 1.376494	-4.740346	 2.310806	 2.530801	 6.414160	 7.936275	 3.491666	-101.578200	-2.663549	 94.728290	 12.996630	 63.247770	-4.722503	 25.666640	-1.327250	 1.241314	-8.790446	 1.422722	 27.578650	-3.513154	 14.748260	-7.319354	-7.079136	 8.337490	 2.062299	 4.963066	-4.014628	-0.346955	 16.735080	-4.460688	-3.346253	-0.966810	-2.002883	-45.972610	 87.700000	-4.448972	-90.987600	-53.263380	 20.669200	 90.743030	-60.671810	-4.612319	 5.253154	 19.804840	-9.427891	-10.188080	-2.910219	 16.510610	-2.837055	 14.356920	 22.994400	-6.787615	-8.239867	-2.131385	 0.447455
